<?xml version="1.0" encoding="utf-8" ?>
<svg baseProfile="tiny" height="800" version="1.2" width="600" xmlns="http://www.w3.org/2000/svg" xmlns:ev="http://www.w3.org/2001/xml-events" xmlns:xlink="http://www.w3.org/1999/xlink"><defs /><rect fill="none" height="800" stroke="black" stroke-width="10" width="600" x="0" y="0" /><text fill="black" font-family="Helvetica" font-size="50" font-weight="bold" x="20" y="60">Monday at Bigbury</text><text fill="black" font-family="Helvetica" font-size="30" x="20" y="90">am</text><text fill="black" font-family="Helvetica" font-size="70" font-weight="bold" x="40" y="150">2-4</text><image height="30" width="30" x="150" xlink:href="./png/sa-225.png" y="95" /><text fill="black" font-family="Helvetica" font-size="30" x="150" y="150">ft</text><text fill="black" font-family="Helvetica" font-size="30" x="20" y="190">pm</text><text fill="black" font-family="Helvetica" font-size="70" font-weight="bold" x="40" y="250">2-3</text><image height="30" width="30" x="150" xlink:href="./png/sa-225.png" y="195" /><text fill="black" font-family="Helvetica" font-size="30" x="150" y="250">ft</text><text fill="black" font-family="Helvetica" font-size="50" font-weight="bold" x="20" y="325">Tuesday</text><text fill="black" font-family="Helvetica" font-size="30" x="20" y="355">am</text><text fill="black" font-family="Helvetica" font-size="70" font-weight="bold" x="40" y="415">2-4</text><image height="30" width="30" x="150" xlink:href="./png/sa-225.png" y="360" /><text fill="black" font-family="Helvetica" font-size="30" x="150" y="415">ft</text><text fill="black" font-family="Helvetica" font-size="30" x="20" y="455">pm</text><text fill="black" font-family="Helvetica" font-size="70" font-weight="bold" x="40" y="515">3-5</text><image height="30" width="30" x="150" xlink:href="./png/sa-225.png" y="460" /><text fill="black" font-family="Helvetica" font-size="30" x="150" y="515">ft</text><text fill="black" font-family="Helvetica" font-size="50" font-weight="bold" x="20" y="585">Wednesday</text><text fill="black" font-family="Helvetica" font-size="30" x="20" y="615">am</text><text fill="black" font-family="Helvetica" font-size="70" font-weight="bold" x="40" y="675">3-5</text><image height="30" width="30" x="150" xlink:href="./png/sa-225.png" y="620" /><text fill="black" font-family="Helvetica" font-size="30" x="150" y="675">ft</text><text fill="black" font-family="Helvetica" font-size="30" x="20" y="715">pm</text><text fill="black" font-family="Helvetica" font-size="70" font-weight="bold" x="40" y="775">3-5</text><image height="30" width="30" x="150" xlink:href="./png/sa-225.png" y="720" /><text fill="black" font-family="Helvetica" font-size="30" x="150" y="775">ft</text><image height="50" width="50" x="225" xlink:href="./png/wa-292.png" y="100" /><text fill="black" font-family="Helvetica" font-size="30" x="300" y="120">14</text><text fill="black" font-family="Helvetica" font-size="30" x="290" y="150">mph</text><image height="50" width="50" x="225" xlink:href="./png/wa-315.png" y="200" /><text fill="black" font-family="Helvetica" font-size="30" x="300" y="220">25</text><text fill="black" font-family="Helvetica" font-size="30" x="290" y="250">mph</text><image height="50" width="50" x="225" xlink:href="./png/wa-247.png" y="365" /><text fill="black" font-family="Helvetica" font-size="30" x="300" y="385">32</text><text fill="black" font-family="Helvetica" font-size="30" x="290" y="415">mph</text><image height="50" width="50" x="225" xlink:href="./png/wa-225.png" y="465" /><text fill="black" font-family="Helvetica" font-size="30" x="300" y="485">32</text><text fill="black" font-family="Helvetica" font-size="30" x="290" y="515">mph</text><image height="50" width="50" x="225" xlink:href="./png/wa-247.png" y="625" /><text fill="black" font-family="Helvetica" font-size="30" x="300" y="645">24</text><text fill="black" font-family="Helvetica" font-size="30" x="290" y="675">mph</text><image height="50" width="50" x="225" xlink:href="./png/wa-247.png" y="725" /><text fill="black" font-family="Helvetica" font-size="30" x="300" y="745">31</text><text fill="black" font-family="Helvetica" font-size="30" x="290" y="775">mph</text><image height="100" width="100" x="390" xlink:href="./png/100.png" y="75" /><text fill="black" font-family="Helvetica" font-size="50" x="500" y="140">8°</text><image height="100" width="100" x="390" xlink:href="./png/103.png" y="175" /><text fill="black" font-family="Helvetica" font-size="50" x="500" y="240">9°</text><image height="100" width="100" x="390" xlink:href="./png/300.png" y="340" /><text fill="black" font-family="Helvetica" font-size="50" x="500" y="405">10°</text><image height="100" width="100" x="390" xlink:href="./png/306.png" y="440" /><text fill="black" font-family="Helvetica" font-size="50" x="500" y="505">10°</text><image height="100" width="100" x="390" xlink:href="./png/101.png" y="600" /><text fill="black" font-family="Helvetica" font-size="50" x="500" y="665">11°</text><image height="100" width="100" x="390" xlink:href="./png/309.png" y="700" /><text fill="black" font-family="Helvetica" font-size="50" x="500" y="765">12°</text><text fill="black" font-family="Helvetica" font-size="20" x="70" y="90">1.9m at 10:42</text></svg>